<?xml version="1.0" ?><!DOCTYPE svg  PUBLIC '-//W3C//DTD SVG 1.1//EN'  'http://www.w3.org/Graphics/SVG/1.1/DTD/svg11.dtd'><svg enable-background="new 0 0 64 64" id="Layer_1" version="1.1" viewBox="0 0 64 64" xml:space="preserve" xmlns="http://www.w3.org/2000/svg" xmlns:xlink="http://www.w3.org/1999/xlink"><g><path d="M27.1,36.7c-0.6-0.2-2.9-1-5.2-1c-3,0-4.8,1.3-5.4,4c-1.2,5-2.7,6.9-4.9,8c6.4-0.5,10.4-3.6,10.4-3.6   c0.4-0.3,1.1-0.3,1.4,0.2c0.3,0.4,0.3,1.1-0.2,1.4c-0.2,0.2-4.4,3.5-11.3,4c3,1.1,6.8,2.2,10.3,2.2h0c3,0,5.3-0.8,6.8-2.4   c1.7-1.8,2.4-4.7,2.1-8.6L27.1,36.7z" fill="#A3D3C7"/><polygon fill="#BEEDDF" points="29.1,35.8 32.2,39 35.2,36.3 31.8,32.9  "/><path d="M50,13.3l-1.9,2.1l5.1,5.1l2.2-1.9c1.4-1.4,1.4-3.8,0-5.3C53.9,11.9,51.4,11.9,50,13.3z" fill="#BEEDDF"/><polygon fill="#BEEDDF" points="33.2,31.4 36.8,35 51.7,21.9 46.7,16.9  "/><path d="M52.7,10.2c-1.5,0-3,0.6-4.1,1.7L27.4,34.6c-1.1-0.4-3.2-1-5.5-1c-4,0-6.5,1.9-7.4,5.5   c-1.5,6.1-3.3,6.6-6.3,7.6c-0.7,0.2-1.3,0.4-2.1,0.7c-0.1,0-0.1,0.1-0.2,0.1c0,0,0,0,0,0c-0.1,0.1-0.2,0.2-0.2,0.3c0,0,0,0.1,0,0.1   c0,0.1-0.1,0.2-0.1,0.3c0,0,0,0,0,0.1c0,0,0,0,0,0c0,0,0,0,0,0.1c0,0.1,0,0.2,0,0.3c0,0,0,0,0,0c0,0.1,0.1,0.2,0.1,0.3   c0,0,0,0.1,0.1,0.1c0.1,0.1,0.1,0.1,0.2,0.2c0,0,0,0,0.1,0.1c0,0,0,0,0,0c0.4,0.2,8.8,4.4,16.2,4.4c0,0,0,0,0,0c3.6,0,6.4-1,8.2-3   c2-2.2,2.9-5.6,2.7-10l23.5-20.7c2.3-2.2,2.3-5.9,0-8.2C55.7,10.8,54.2,10.2,52.7,10.2z M29.1,49.4c-1.5,1.6-3.7,2.4-6.8,2.4h0   c-3.5,0-7.4-1.1-10.3-2.2c6.8-0.5,11-3.9,11.3-4c0.4-0.3,0.5-1,0.2-1.4c-0.3-0.4-1-0.5-1.4-0.2c0,0-4,3.2-10.4,3.6   c2.2-1.1,3.7-3,4.9-8c0.6-2.7,2.4-4,5.4-4c2.3,0,4.6,0.8,5.2,1l4.1,4.1C31.5,44.7,30.7,47.6,29.1,49.4z M32.2,39l-3.2-3.2l2.7-2.9   l3.5,3.5L32.2,39z M36.8,35l-3.6-3.6l13.6-14.5l5,5L36.8,35z M55.4,18.6l-2.2,1.9l-5.1-5.1l1.9-2.1c1.4-1.4,3.9-1.4,5.3,0   C56.8,14.8,56.8,17.2,55.4,18.6z" fill="#101A1E"/></g></svg>