<?xml version="1.0" ?><svg data-name="Layer 1" id="Layer_1" viewBox="0 0 200 200" xmlns="http://www.w3.org/2000/svg"><defs><style>.cls-1{fill:#fff;}.cls-2{fill:#ffc861;}.cls-3{fill:#2f4360;}.cls-4{fill:none;stroke:#2f4360;stroke-linecap:round;stroke-linejoin:round;stroke-width:6px;}</style></defs><title/><path class="cls-1" d="M123.28,93.47L58.35,158.4a19.7,19.7,0,1,1-16.76-16.76l64.93-64.93c19.7-19.7,20.2-22,19.41-24.09a24.61,24.61,0,0,1,33.83-30.95c0.39,0.19.8,0.39,1.18,0.61L145.38,37.86a6.42,6.42,0,0,0,0,9l7.72,7.72a6.41,6.41,0,0,0,6.3,1.6,6.27,6.27,0,0,0,2.74-1.61L177.7,39.05a24.27,24.27,0,0,1,2.52,6.55c0.06,0.28.12,0.56,0.16,0.85a24.58,24.58,0,0,1-33,27.62C145.32,73.29,143,73.77,123.28,93.47Z"/><path class="cls-2" d="M123.28,93.47L58.35,158.4a19.71,19.71,0,0,1-30.67,19,19.68,19.68,0,0,1,18.95-30.68l64.93-64.93c19.7-19.7,20.2-22,19.41-24.09a24.59,24.59,0,0,1,27.61-33l-13.2,13.2a6.42,6.42,0,0,0,0,9l12.76,12.76a6.41,6.41,0,0,0,6.3,1.6,6.27,6.27,0,0,0,2.74-1.61l13.2-13.2a24.58,24.58,0,0,1-33,27.62C145.32,73.29,143,73.77,123.28,93.47Z"/><polygon class="cls-3" points="46.39 153.61 49.15 163.92 41.6 171.47 31.3 168.7 28.54 158.4 36.08 150.85 46.39 153.61"/><path class="cls-4" d="M147.37,74.07a24.62,24.62,0,0,0,30.33-35L162.14,54.62a6.41,6.41,0,0,1-9,0l-7.71-7.71a6.41,6.41,0,0,1,0-9L160.94,22.3a24.62,24.62,0,0,0-35,30.33c0.79,2.06.3,4.39-19.4,24.09L41.59,141.65a19.72,19.72,0,1,0,16.76,16.76l64.93-64.93C143,73.78,145.31,73.29,147.37,74.07Z"/></svg>