<?xml version="1.0" ?><svg enable-background="new 0 0 500 500" id="Layer_1" version="1.1" viewBox="0 0 500 500" xml:space="preserve" xmlns="http://www.w3.org/2000/svg" xmlns:xlink="http://www.w3.org/1999/xlink"><g><g><circle cx="251.079" cy="235.237" fill="#2666CE" r="217.844"/><path d="M223.192,434h56.42l189.27-202.19c-1.737-118.814-98.576-214.509-217.803-214.509    c-116.72,0-211.994,91.659-217.58,206.994L223.192,434z" fill="#4384EC"/><g><path d="M250.786,146.311c-57.47,0.78-104.231,47.232-105.371,104.696c-0.584,29.456,10.753,56.262,29.512,75.926     c15.264,16,28.471,33.807,38.937,53.182c6.101,11.295,9.504,23.85,10.165,36.671l0.097,1.891     c0.442,8.579,7.527,15.308,16.117,15.308h22.391c8.645,0,15.754-6.812,16.124-15.449l0,0     c0.561-13.125,3.973-26.007,10.259-37.543c10.41-19.105,23.323-36.775,38.752-52.173c19.384-19.345,31.378-46.092,31.378-75.642     C359.147,193.657,310.493,145.501,250.786,146.311z" fill="#FECC5D"/><path d="     M244.057,433.985v-14.954c0-39.554-4.814-78.96-14.337-117.351l-7.5-30.235c-1.212-6.155,5.965-10.433,10.802-6.437l0,0     c3.356,2.773,8.425,1.643,10.287-2.292l3.78-7.99c2.358-4.983,9.398-5.123,11.951-0.237l4.535,8.677     c1.967,3.763,6.901,4.758,10.173,2.051l0.059-0.049c4.853-4.016,12.058,0.307,10.797,6.479l-5.516,18.26     c-13.808,45.711-20.825,93.202-20.825,140.953v3.124" fill="none" stroke="#FFFFFF" stroke-linecap="round" stroke-linejoin="round" stroke-miterlimit="10" stroke-width="10"/><path d="M279.612,434.46h-56.42c-4.88,0-8.837-3.956-8.837-8.837l0,0c0-4.88,3.956-8.837,8.837-8.837h56.42     c4.88,0,8.837,3.956,8.837,8.837l0,0C288.449,430.504,284.492,434.46,279.612,434.46z" fill="#E2DEDE"/><path d="M279.612,452.134h-56.42c-4.88,0-8.837-3.956-8.837-8.837v0c0-4.88,3.956-8.837,8.837-8.837h56.42     c4.88,0,8.837,3.956,8.837,8.837v0C288.449,448.177,284.492,452.134,279.612,452.134z" fill="#F3F3F3"/><path d="M279.612,469.808h-56.42c-4.88,0-8.837-3.956-8.837-8.837v0c0-4.88,3.956-8.837,8.837-8.837h56.42     c4.88,0,8.837,3.956,8.837,8.837v0C288.449,465.851,284.492,469.808,279.612,469.808z" fill="#E2DEDE"/><path d="M251.402,489.653L251.402,489.653c-6.839,0-12.879-4.456-14.898-10.99l-2.735-8.855h35.266l-2.735,8.855     C264.281,485.197,258.241,489.653,251.402,489.653z" fill="#D3CDCD"/></g></g><g><path d="M252.5,111.866c-4.143,0-7.5-3.357-7.5-7.5v-45c0-4.143,3.357-7.5,7.5-7.5s7.5,3.357,7.5,7.5v45    C260,108.508,256.643,111.866,252.5,111.866z" fill="#FFFFFF"/><path d="M373.847,187.811c-2.7,0-5.309-1.463-6.649-4.021c-1.922-3.669-0.507-8.202,3.162-10.125l39.859-20.887    c3.667-1.921,8.201-0.508,10.125,3.162c1.922,3.669,0.507,8.202-3.162,10.125l-39.859,20.887    C376.211,187.535,375.021,187.811,373.847,187.811z" fill="#FFFFFF"/><path d="M323.762,135.994c-1.242,0-2.5-0.309-3.66-0.959c-3.613-2.025-4.9-6.596-2.875-10.209l22.004-39.254    c2.026-3.613,6.597-4.9,10.209-2.875c3.613,2.025,4.9,6.596,2.875,10.209l-22.004,39.254    C328.936,134.613,326.387,135.994,323.762,135.994z" fill="#FFFFFF"/><path d="M124.622,187.811c-1.174,0-2.364-0.276-3.476-0.858l-39.859-20.887c-3.669-1.923-5.084-6.456-3.162-10.125    c1.924-3.67,6.458-5.083,10.125-3.162l39.859,20.887c3.669,1.923,5.084,6.456,3.162,10.125    C129.931,186.348,127.321,187.811,124.622,187.811z" fill="#FFFFFF"/><path d="M174.707,135.994c-2.626,0-5.174-1.381-6.549-3.834l-22.005-39.254c-2.025-3.612-0.738-8.184,2.875-10.209    c3.612-2.025,8.185-0.737,10.209,2.875l22.005,39.254c2.025,3.612,0.738,8.184-2.875,10.209    C177.208,135.685,175.948,135.994,174.707,135.994z" fill="#FFFFFF"/></g></g></svg>